<svg xmlns="http://www.w3.org/2000/svg" xmlns:xlink="http://www.w3.org/1999/xlink" width="500" zoomAndPan="magnify" viewBox="0 0 375 374.999991" height="500" preserveAspectRatio="xMidYMid meet" version="1.0"><defs><clipPath id="f88c1b1364"><path d="M 335.609375 375.007812 L 39.390625 375.007812 C 17.636719 375.007812 0 357.371094 0 335.609375 L 0 39.390625 C 0 17.636719 17.636719 0 39.390625 0 L 335.609375 0 C 357.371094 0 375 17.636719 375 39.390625 L 375 335.609375 C 375.007812 357.371094 357.371094 375.007812 335.609375 375.007812 Z M 335.609375 375.007812 " clip-rule="nonzero"/></clipPath><linearGradient x1="0" gradientTransform="matrix(0.814332, 0, 0, 0.814332, 0.0000045, 0)" y1="230.254" x2="460.499979" gradientUnits="userSpaceOnUse" y2="230.254" id="69dc5cefe0"><stop stop-opacity="1" stop-color="rgb(42.399597%, 92.199707%, 92.199707%)" offset="0"/><stop stop-opacity="1" stop-color="rgb(42.260742%, 92.024231%, 92.085266%)" offset="0.015625"/><stop stop-opacity="1" stop-color="rgb(41.984558%, 91.673279%, 91.856384%)" offset="0.03125"/><stop stop-opacity="1" stop-color="rgb(41.706848%, 91.323853%, 91.629028%)" offset="0.046875"/><stop stop-opacity="1" stop-color="rgb(41.430664%, 90.974426%, 91.400146%)" offset="0.0625"/><stop stop-opacity="1" stop-color="rgb(41.15448%, 90.623474%, 91.172791%)" offset="0.078125"/><stop stop-opacity="1" stop-color="rgb(40.878296%, 90.274048%, 90.943909%)" offset="0.09375"/><stop stop-opacity="1" stop-color="rgb(40.600586%, 89.923096%, 90.716553%)" offset="0.109375"/><stop stop-opacity="1" stop-color="rgb(40.324402%, 89.573669%, 90.487671%)" offset="0.125"/><stop stop-opacity="1" stop-color="rgb(40.048218%, 89.224243%, 90.260315%)" offset="0.140625"/><stop stop-opacity="1" stop-color="rgb(39.772034%, 88.873291%, 90.031433%)" offset="0.15625"/><stop stop-opacity="1" stop-color="rgb(39.494324%, 88.523865%, 89.804077%)" offset="0.171875"/><stop stop-opacity="1" stop-color="rgb(39.21814%, 88.174438%, 89.575195%)" offset="0.1875"/><stop stop-opacity="1" stop-color="rgb(38.941956%, 87.823486%, 89.347839%)" offset="0.203125"/><stop stop-opacity="1" stop-color="rgb(38.665771%, 87.47406%, 89.118958%)" offset="0.21875"/><stop stop-opacity="1" stop-color="rgb(38.388062%, 87.123108%, 88.891602%)" offset="0.234375"/><stop stop-opacity="1" stop-color="rgb(38.111877%, 86.773682%, 88.66272%)" offset="0.25"/><stop stop-opacity="1" stop-color="rgb(37.835693%, 86.424255%, 88.435364%)" offset="0.265625"/><stop stop-opacity="1" stop-color="rgb(37.559509%, 86.073303%, 88.206482%)" offset="0.28125"/><stop stop-opacity="1" stop-color="rgb(37.281799%, 85.723877%, 87.979126%)" offset="0.296875"/><stop stop-opacity="1" stop-color="rgb(37.005615%, 85.374451%, 87.750244%)" offset="0.3125"/><stop stop-opacity="1" stop-color="rgb(36.729431%, 85.023499%, 87.522888%)" offset="0.328125"/><stop stop-opacity="1" stop-color="rgb(36.453247%, 84.674072%, 87.294006%)" offset="0.34375"/><stop stop-opacity="1" stop-color="rgb(36.175537%, 84.324646%, 87.06665%)" offset="0.359375"/><stop stop-opacity="1" stop-color="rgb(35.899353%, 83.973694%, 86.837769%)" offset="0.375"/><stop stop-opacity="1" stop-color="rgb(35.623169%, 83.624268%, 86.610413%)" offset="0.390625"/><stop stop-opacity="1" stop-color="rgb(35.346985%, 83.273315%, 86.381531%)" offset="0.40625"/><stop stop-opacity="1" stop-color="rgb(35.069275%, 82.923889%, 86.154175%)" offset="0.421875"/><stop stop-opacity="1" stop-color="rgb(34.793091%, 82.574463%, 85.925293%)" offset="0.4375"/><stop stop-opacity="1" stop-color="rgb(34.516907%, 82.223511%, 85.697937%)" offset="0.453125"/><stop stop-opacity="1" stop-color="rgb(34.240723%, 81.874084%, 85.469055%)" offset="0.46875"/><stop stop-opacity="1" stop-color="rgb(33.963013%, 81.524658%, 85.241699%)" offset="0.484375"/><stop stop-opacity="1" stop-color="rgb(33.686829%, 81.173706%, 85.012817%)" offset="0.5"/><stop stop-opacity="1" stop-color="rgb(33.410645%, 80.82428%, 84.785461%)" offset="0.515625"/><stop stop-opacity="1" stop-color="rgb(33.13446%, 80.473328%, 84.55658%)" offset="0.53125"/><stop stop-opacity="1" stop-color="rgb(32.85675%, 80.123901%, 84.329224%)" offset="0.546875"/><stop stop-opacity="1" stop-color="rgb(32.580566%, 79.774475%, 84.100342%)" offset="0.5625"/><stop stop-opacity="1" stop-color="rgb(32.304382%, 79.423523%, 83.872986%)" offset="0.578125"/><stop stop-opacity="1" stop-color="rgb(32.028198%, 79.074097%, 83.644104%)" offset="0.59375"/><stop stop-opacity="1" stop-color="rgb(31.750488%, 78.72467%, 83.416748%)" offset="0.609375"/><stop stop-opacity="1" stop-color="rgb(31.474304%, 78.373718%, 83.187866%)" offset="0.625"/><stop stop-opacity="1" stop-color="rgb(31.19812%, 78.024292%, 82.96051%)" offset="0.640625"/><stop stop-opacity="1" stop-color="rgb(30.921936%, 77.67334%, 82.731628%)" offset="0.65625"/><stop stop-opacity="1" stop-color="rgb(30.644226%, 77.323914%, 82.504272%)" offset="0.671875"/><stop stop-opacity="1" stop-color="rgb(30.368042%, 76.974487%, 82.275391%)" offset="0.6875"/><stop stop-opacity="1" stop-color="rgb(30.091858%, 76.623535%, 82.048035%)" offset="0.703125"/><stop stop-opacity="1" stop-color="rgb(29.815674%, 76.274109%, 81.819153%)" offset="0.71875"/><stop stop-opacity="1" stop-color="rgb(29.53949%, 75.924683%, 81.591797%)" offset="0.734375"/><stop stop-opacity="1" stop-color="rgb(29.26178%, 75.57373%, 81.362915%)" offset="0.75"/><stop stop-opacity="1" stop-color="rgb(28.985596%, 75.224304%, 81.135559%)" offset="0.765625"/><stop stop-opacity="1" stop-color="rgb(28.709412%, 74.873352%, 80.906677%)" offset="0.78125"/><stop stop-opacity="1" stop-color="rgb(28.433228%, 74.523926%, 80.679321%)" offset="0.796875"/><stop stop-opacity="1" stop-color="rgb(28.155518%, 74.1745%, 80.450439%)" offset="0.8125"/><stop stop-opacity="1" stop-color="rgb(27.879333%, 73.823547%, 80.223083%)" offset="0.828125"/><stop stop-opacity="1" stop-color="rgb(27.603149%, 73.474121%, 79.994202%)" offset="0.84375"/><stop stop-opacity="1" stop-color="rgb(27.326965%, 73.124695%, 79.766846%)" offset="0.859375"/><stop stop-opacity="1" stop-color="rgb(27.049255%, 72.773743%, 79.537964%)" offset="0.875"/><stop stop-opacity="1" stop-color="rgb(26.773071%, 72.424316%, 79.310608%)" offset="0.890625"/><stop stop-opacity="1" stop-color="rgb(26.496887%, 72.073364%, 79.081726%)" offset="0.90625"/><stop stop-opacity="1" stop-color="rgb(26.220703%, 71.723938%, 78.85437%)" offset="0.921875"/><stop stop-opacity="1" stop-color="rgb(25.942993%, 71.374512%, 78.625488%)" offset="0.9375"/><stop stop-opacity="1" stop-color="rgb(25.666809%, 71.02356%, 78.398132%)" offset="0.953125"/><stop stop-opacity="1" stop-color="rgb(25.390625%, 70.674133%, 78.16925%)" offset="0.96875"/><stop stop-opacity="1" stop-color="rgb(25.114441%, 70.324707%, 77.941895%)" offset="0.984375"/><stop stop-opacity="1" stop-color="rgb(24.836731%, 69.973755%, 77.713013%)" offset="1"/></linearGradient><clipPath id="808efcc542"><path d="M 37.5 27.90625 L 347.25 27.90625 L 347.25 337.65625 L 37.5 337.65625 Z M 37.5 27.90625 " clip-rule="nonzero"/></clipPath></defs><g clip-path="url(#f88c1b1364)"><rect x="-37.5" fill="url(#69dc5cefe0)" width="450" y="-37.499999" height="449.999989"/></g><path fill="#004aad" d="M 256.558594 101.269531 L 241.28125 101.269531 L 241.28125 93.117188 C 241.28125 92.582031 241.230469 92.050781 241.125 91.527344 C 241.023438 91.003906 240.867188 90.492188 240.664062 90 C 240.457031 89.503906 240.207031 89.035156 239.910156 88.589844 C 239.613281 88.144531 239.273438 87.730469 238.894531 87.355469 C 238.515625 86.976562 238.105469 86.636719 237.660156 86.339844 C 237.214844 86.042969 236.746094 85.792969 236.25 85.585938 C 235.757812 85.382812 235.246094 85.226562 234.722656 85.121094 C 234.195312 85.019531 233.667969 84.964844 233.132812 84.964844 C 232.597656 84.964844 232.066406 85.019531 231.542969 85.121094 C 231.015625 85.226562 230.507812 85.382812 230.011719 85.585938 C 229.519531 85.792969 229.046875 86.042969 228.601562 86.339844 C 228.15625 86.636719 227.746094 86.976562 227.367188 87.355469 C 226.988281 87.730469 226.652344 88.144531 226.355469 88.589844 C 226.054688 89.035156 225.804688 89.503906 225.601562 90 C 225.394531 90.492188 225.242188 91.003906 225.136719 91.527344 C 225.03125 92.050781 224.980469 92.582031 224.980469 93.117188 L 224.980469 101.269531 L 200.527344 101.269531 L 200.527344 93.117188 C 200.527344 92.582031 200.472656 92.050781 200.371094 91.527344 C 200.265625 91.003906 200.109375 90.492188 199.90625 90 C 199.699219 89.503906 199.449219 89.035156 199.152344 88.589844 C 198.855469 88.144531 198.515625 87.730469 198.140625 87.355469 C 197.761719 86.976562 197.347656 86.636719 196.902344 86.339844 C 196.457031 86.042969 195.988281 85.792969 195.496094 85.585938 C 195 85.382812 194.488281 85.226562 193.964844 85.121094 C 193.441406 85.019531 192.910156 84.964844 192.375 84.964844 C 191.839844 84.964844 191.308594 85.019531 190.785156 85.121094 C 190.261719 85.226562 189.75 85.382812 189.253906 85.585938 C 188.761719 85.792969 188.292969 86.042969 187.847656 86.339844 C 187.402344 86.636719 186.988281 86.976562 186.609375 87.355469 C 186.234375 87.730469 185.894531 88.144531 185.597656 88.589844 C 185.300781 89.035156 185.050781 89.503906 184.84375 90 C 184.640625 90.492188 184.484375 91.003906 184.378906 91.527344 C 184.277344 92.050781 184.222656 92.582031 184.222656 93.117188 L 184.222656 101.269531 L 159.769531 101.269531 L 159.769531 93.117188 C 159.769531 92.582031 159.71875 92.050781 159.613281 91.527344 C 159.507812 91.003906 159.355469 90.492188 159.148438 90 C 158.945312 89.503906 158.691406 89.035156 158.394531 88.589844 C 158.097656 88.144531 157.761719 87.730469 157.382812 87.355469 C 157.003906 86.976562 156.59375 86.636719 156.148438 86.339844 C 155.703125 86.042969 155.230469 85.792969 154.738281 85.585938 C 154.242188 85.382812 153.734375 85.226562 153.207031 85.121094 C 152.683594 85.019531 152.152344 84.964844 151.617188 84.964844 C 151.082031 84.964844 150.554688 85.019531 150.027344 85.121094 C 149.503906 85.226562 148.992188 85.382812 148.5 85.585938 C 148.003906 85.792969 147.535156 86.042969 147.089844 86.339844 C 146.644531 86.636719 146.234375 86.976562 145.855469 87.355469 C 145.476562 87.730469 145.136719 88.144531 144.839844 88.589844 C 144.542969 89.035156 144.292969 89.503906 144.085938 90 C 143.882812 90.492188 143.726562 91.003906 143.625 91.527344 C 143.519531 92.050781 143.46875 92.582031 143.46875 93.117188 L 143.46875 101.269531 L 128.191406 101.269531 C 127.355469 101.269531 126.523438 101.3125 125.695312 101.394531 C 124.863281 101.476562 124.042969 101.597656 123.222656 101.761719 C 122.40625 101.925781 121.597656 102.128906 120.800781 102.371094 C 120 102.613281 119.214844 102.894531 118.445312 103.214844 C 117.675781 103.535156 116.921875 103.890625 116.1875 104.285156 C 115.453125 104.675781 114.738281 105.105469 114.042969 105.570312 C 113.351562 106.03125 112.679688 106.527344 112.035156 107.058594 C 111.390625 107.585938 110.773438 108.148438 110.183594 108.734375 C 109.59375 109.324219 109.035156 109.941406 108.503906 110.585938 C 107.976562 111.234375 107.480469 111.902344 107.015625 112.59375 C 106.550781 113.289062 106.121094 114.003906 105.730469 114.738281 C 105.335938 115.472656 104.980469 116.226562 104.660156 116.996094 C 104.339844 117.765625 104.058594 118.550781 103.816406 119.347656 C 103.574219 120.148438 103.367188 120.957031 103.207031 121.773438 C 103.042969 122.589844 102.917969 123.414062 102.835938 124.246094 C 102.753906 125.074219 102.710938 125.90625 102.710938 126.742188 L 102.710938 238.820312 C 102.710938 239.65625 102.753906 240.488281 102.835938 241.320312 C 102.917969 242.148438 103.042969 242.972656 103.207031 243.789062 C 103.367188 244.609375 103.574219 245.417969 103.816406 246.214844 C 104.058594 247.011719 104.339844 247.796875 104.660156 248.566406 C 104.980469 249.335938 105.335938 250.089844 105.730469 250.824219 C 106.121094 251.5625 106.550781 252.277344 107.015625 252.96875 C 107.480469 253.664062 107.976562 254.332031 108.503906 254.976562 C 109.035156 255.621094 109.59375 256.238281 110.183594 256.828125 C 110.773438 257.417969 111.390625 257.976562 112.035156 258.507812 C 112.679688 259.035156 113.351562 259.53125 114.042969 259.996094 C 114.738281 260.457031 115.453125 260.886719 116.1875 261.28125 C 116.921875 261.671875 117.675781 262.03125 118.445312 262.351562 C 119.214844 262.667969 120 262.949219 120.800781 263.191406 C 121.597656 263.433594 122.40625 263.636719 123.222656 263.800781 C 124.042969 263.964844 124.863281 264.085938 125.695312 264.171875 C 126.523438 264.253906 127.355469 264.292969 128.191406 264.296875 L 256.558594 264.296875 C 257.390625 264.292969 258.226562 264.253906 259.054688 264.171875 C 259.886719 264.085938 260.707031 263.964844 261.527344 263.800781 C 262.34375 263.636719 263.152344 263.433594 263.949219 263.191406 C 264.75 262.949219 265.535156 262.667969 266.304688 262.351562 C 267.074219 262.03125 267.828125 261.671875 268.5625 261.28125 C 269.296875 260.886719 270.011719 260.457031 270.707031 259.996094 C 271.398438 259.53125 272.070312 259.035156 272.714844 258.507812 C 273.359375 257.976562 273.976562 257.417969 274.566406 256.828125 C 275.15625 256.238281 275.714844 255.621094 276.246094 254.976562 C 276.773438 254.332031 277.269531 253.664062 277.734375 252.96875 C 278.199219 252.277344 278.628906 251.5625 279.019531 250.824219 C 279.414062 250.089844 279.769531 249.335938 280.089844 248.566406 C 280.410156 247.796875 280.691406 247.011719 280.933594 246.214844 C 281.175781 245.417969 281.378906 244.609375 281.542969 243.789062 C 281.707031 242.972656 281.832031 242.148438 281.914062 241.320312 C 281.996094 240.488281 282.039062 239.65625 282.039062 238.820312 L 282.039062 126.742188 C 282.039062 125.90625 281.996094 125.074219 281.914062 124.246094 C 281.832031 123.414062 281.707031 122.589844 281.542969 121.773438 C 281.378906 120.957031 281.175781 120.148438 280.933594 119.347656 C 280.691406 118.550781 280.410156 117.765625 280.089844 116.996094 C 279.769531 116.226562 279.414062 115.472656 279.019531 114.738281 C 278.628906 114.003906 278.199219 113.289062 277.734375 112.59375 C 277.269531 111.902344 276.773438 111.234375 276.246094 110.585938 C 275.714844 109.941406 275.15625 109.324219 274.566406 108.734375 C 273.976562 108.148438 273.359375 107.585938 272.714844 107.058594 C 272.070312 106.527344 271.398438 106.03125 270.707031 105.570312 C 270.011719 105.105469 269.296875 104.675781 268.5625 104.285156 C 267.828125 103.890625 267.074219 103.535156 266.304688 103.214844 C 265.535156 102.894531 264.75 102.613281 263.949219 102.371094 C 263.152344 102.128906 262.34375 101.925781 261.527344 101.761719 C 260.707031 101.597656 259.886719 101.476562 259.054688 101.394531 C 258.226562 101.3125 257.390625 101.269531 256.558594 101.269531 Z M 265.738281 238.820312 C 265.734375 239.425781 265.675781 240.019531 265.558594 240.609375 C 265.4375 241.203125 265.265625 241.773438 265.035156 242.332031 C 264.800781 242.886719 264.519531 243.414062 264.183594 243.914062 C 263.851562 244.417969 263.46875 244.878906 263.042969 245.304688 C 262.617188 245.730469 262.152344 246.109375 261.652344 246.445312 C 261.152344 246.78125 260.625 247.0625 260.066406 247.292969 C 259.511719 247.523438 258.9375 247.695312 258.347656 247.816406 C 257.757812 247.933594 257.160156 247.992188 256.558594 247.992188 L 128.191406 247.992188 C 127.589844 247.992188 126.992188 247.933594 126.402344 247.816406 C 125.8125 247.695312 125.238281 247.523438 124.683594 247.292969 C 124.125 247.0625 123.597656 246.777344 123.097656 246.445312 C 122.597656 246.109375 122.132812 245.730469 121.707031 245.304688 C 121.28125 244.878906 120.898438 244.417969 120.566406 243.914062 C 120.230469 243.414062 119.949219 242.886719 119.714844 242.332031 C 119.484375 241.773438 119.3125 241.203125 119.191406 240.609375 C 119.074219 240.019531 119.015625 239.425781 119.011719 238.820312 L 119.011719 166.480469 L 265.738281 166.480469 Z M 265.738281 150.175781 L 119.011719 150.175781 L 119.011719 126.742188 C 119.015625 126.140625 119.074219 125.542969 119.191406 124.953125 C 119.3125 124.363281 119.484375 123.789062 119.714844 123.234375 C 119.949219 122.675781 120.230469 122.148438 120.566406 121.648438 C 120.898438 121.148438 121.28125 120.683594 121.707031 120.257812 C 122.132812 119.832031 122.597656 119.453125 123.097656 119.117188 C 123.597656 118.785156 124.125 118.503906 124.683594 118.273438 C 125.238281 118.039062 125.8125 117.867188 126.402344 117.75 C 126.992188 117.632812 127.589844 117.570312 128.191406 117.570312 L 143.46875 117.570312 L 143.46875 125.722656 C 143.46875 126.257812 143.519531 126.789062 143.625 127.3125 C 143.726562 127.839844 143.882812 128.347656 144.085938 128.84375 C 144.292969 129.335938 144.542969 129.804688 144.839844 130.25 C 145.136719 130.695312 145.476562 131.109375 145.855469 131.488281 C 146.234375 131.863281 146.644531 132.203125 147.089844 132.5 C 147.535156 132.796875 148.003906 133.046875 148.5 133.253906 C 148.992188 133.457031 149.503906 133.613281 150.027344 133.71875 C 150.554688 133.820312 151.082031 133.875 151.617188 133.875 C 152.152344 133.875 152.683594 133.820312 153.207031 133.71875 C 153.734375 133.613281 154.242188 133.457031 154.738281 133.253906 C 155.230469 133.046875 155.703125 132.796875 156.148438 132.5 C 156.59375 132.203125 157.003906 131.863281 157.382812 131.488281 C 157.761719 131.109375 158.097656 130.695312 158.394531 130.25 C 158.691406 129.804688 158.945312 129.335938 159.148438 128.84375 C 159.355469 128.347656 159.507812 127.839844 159.613281 127.3125 C 159.71875 126.789062 159.769531 126.257812 159.769531 125.722656 L 159.769531 117.570312 L 184.222656 117.570312 L 184.222656 125.722656 C 184.222656 126.257812 184.277344 126.789062 184.378906 127.3125 C 184.484375 127.839844 184.640625 128.347656 184.84375 128.84375 C 185.050781 129.335938 185.300781 129.804688 185.597656 130.25 C 185.894531 130.695312 186.234375 131.109375 186.609375 131.488281 C 186.988281 131.863281 187.402344 132.203125 187.847656 132.5 C 188.292969 132.796875 188.761719 133.046875 189.253906 133.253906 C 189.75 133.457031 190.261719 133.613281 190.785156 133.71875 C 191.308594 133.820312 191.839844 133.875 192.375 133.875 C 192.910156 133.875 193.441406 133.820312 193.964844 133.71875 C 194.488281 133.613281 195 133.457031 195.496094 133.253906 C 195.988281 133.046875 196.457031 132.796875 196.902344 132.5 C 197.347656 132.203125 197.761719 131.863281 198.140625 131.488281 C 198.515625 131.109375 198.855469 130.695312 199.152344 130.25 C 199.449219 129.804688 199.699219 129.335938 199.90625 128.84375 C 200.109375 128.347656 200.265625 127.839844 200.371094 127.3125 C 200.472656 126.789062 200.527344 126.257812 200.527344 125.722656 L 200.527344 117.570312 L 224.980469 117.570312 L 224.980469 125.722656 C 224.980469 126.257812 225.03125 126.789062 225.136719 127.3125 C 225.242188 127.839844 225.394531 128.347656 225.601562 128.84375 C 225.804688 129.335938 226.054688 129.804688 226.355469 130.25 C 226.652344 130.695312 226.988281 131.109375 227.367188 131.488281 C 227.746094 131.863281 228.15625 132.203125 228.601562 132.5 C 229.046875 132.796875 229.519531 133.046875 230.011719 133.253906 C 230.507812 133.457031 231.015625 133.613281 231.542969 133.71875 C 232.066406 133.820312 232.597656 133.875 233.132812 133.875 C 233.667969 133.875 234.195312 133.820312 234.722656 133.71875 C 235.246094 133.613281 235.757812 133.457031 236.25 133.253906 C 236.746094 133.046875 237.214844 132.796875 237.660156 132.5 C 238.105469 132.203125 238.515625 131.863281 238.894531 131.488281 C 239.273438 131.109375 239.613281 130.695312 239.910156 130.25 C 240.207031 129.804688 240.457031 129.335938 240.664062 128.84375 C 240.867188 128.347656 241.023438 127.839844 241.125 127.3125 C 241.230469 126.789062 241.28125 126.257812 241.28125 125.722656 L 241.28125 117.570312 L 256.558594 117.570312 C 257.160156 117.570312 257.757812 117.632812 258.347656 117.75 C 258.9375 117.867188 259.511719 118.039062 260.066406 118.273438 C 260.625 118.503906 261.152344 118.785156 261.652344 119.117188 C 262.152344 119.453125 262.617188 119.832031 263.042969 120.257812 C 263.46875 120.683594 263.851562 121.148438 264.183594 121.648438 C 264.519531 122.148438 264.800781 122.675781 265.035156 123.234375 C 265.265625 123.789062 265.4375 124.363281 265.558594 124.953125 C 265.675781 125.542969 265.734375 126.140625 265.738281 126.742188 Z M 265.738281 150.175781 " fill-opacity="1" fill-rule="nonzero"/><path fill="#004aad" d="M 178.460938 229.300781 C 178.839844 229.679688 179.25 230.019531 179.695312 230.316406 C 180.140625 230.613281 180.609375 230.863281 181.105469 231.066406 C 181.597656 231.273438 182.109375 231.425781 182.632812 231.53125 C 183.160156 231.636719 183.6875 231.6875 184.222656 231.6875 C 184.757812 231.6875 185.289062 231.636719 185.8125 231.53125 C 186.339844 231.425781 186.847656 231.273438 187.34375 231.066406 C 187.835938 230.863281 188.304688 230.613281 188.75 230.316406 C 189.195312 230.019531 189.609375 229.679688 189.988281 229.300781 L 222.59375 196.695312 C 222.960938 196.316406 223.285156 195.902344 223.574219 195.457031 C 223.863281 195.015625 224.101562 194.546875 224.300781 194.054688 C 224.496094 193.5625 224.644531 193.058594 224.738281 192.535156 C 224.835938 192.015625 224.882812 191.492188 224.878906 190.960938 C 224.875 190.433594 224.820312 189.910156 224.710938 189.390625 C 224.605469 188.871094 224.449219 188.371094 224.246094 187.882812 C 224.042969 187.394531 223.792969 186.929688 223.496094 186.488281 C 223.203125 186.050781 222.867188 185.644531 222.492188 185.269531 C 222.117188 184.894531 221.710938 184.5625 221.273438 184.265625 C 220.832031 183.972656 220.367188 183.722656 219.878906 183.515625 C 219.394531 183.3125 218.890625 183.15625 218.371094 183.050781 C 217.851562 182.941406 217.328125 182.886719 216.800781 182.882812 C 216.269531 182.878906 215.746094 182.925781 215.226562 183.023438 C 214.707031 183.121094 214.199219 183.265625 213.707031 183.460938 C 213.214844 183.660156 212.75 183.902344 212.304688 184.1875 C 211.859375 184.476562 211.445312 184.800781 211.066406 185.171875 L 184.222656 212.011719 L 173.683594 201.472656 C 173.304688 201.105469 172.890625 200.777344 172.445312 200.492188 C 172 200.203125 171.535156 199.960938 171.042969 199.765625 C 170.550781 199.570312 170.042969 199.421875 169.523438 199.324219 C 169.003906 199.226562 168.480469 199.179688 167.949219 199.183594 C 167.421875 199.191406 166.898438 199.246094 166.378906 199.351562 C 165.859375 199.457031 165.355469 199.613281 164.871094 199.820312 C 164.382812 200.023438 163.917969 200.273438 163.476562 200.570312 C 163.039062 200.863281 162.632812 201.199219 162.257812 201.574219 C 161.882812 201.945312 161.546875 202.351562 161.253906 202.792969 C 160.957031 203.230469 160.707031 203.695312 160.503906 204.183594 C 160.300781 204.671875 160.144531 205.175781 160.039062 205.695312 C 159.929688 206.210938 159.875 206.734375 159.871094 207.265625 C 159.867188 207.792969 159.914062 208.320312 160.011719 208.839844 C 160.105469 209.359375 160.253906 209.867188 160.449219 210.355469 C 160.648438 210.847656 160.886719 211.316406 161.175781 211.761719 C 161.464844 212.207031 161.789062 212.617188 162.15625 213 Z M 178.460938 229.300781 " fill-opacity="1" fill-rule="nonzero"/><g clip-path="url(#808efcc542)"><path fill="#004aad" d="M 192.375 27.90625 C 189.839844 27.90625 187.308594 27.96875 184.777344 28.09375 C 182.242188 28.21875 179.71875 28.40625 177.195312 28.652344 C 174.671875 28.902344 172.15625 29.210938 169.648438 29.582031 C 167.144531 29.957031 164.644531 30.386719 162.160156 30.882812 C 159.675781 31.378906 157.203125 31.933594 154.742188 32.546875 C 152.285156 33.164062 149.84375 33.839844 147.417969 34.574219 C 144.992188 35.3125 142.585938 36.105469 140.199219 36.960938 C 137.8125 37.8125 135.449219 38.726562 133.105469 39.695312 C 130.765625 40.667969 128.449219 41.691406 126.15625 42.777344 C 123.867188 43.859375 121.601562 45 119.367188 46.195312 C 117.132812 47.390625 114.925781 48.636719 112.753906 49.941406 C 110.578125 51.246094 108.4375 52.601562 106.332031 54.007812 C 104.222656 55.417969 102.152344 56.875 100.117188 58.386719 C 98.082031 59.894531 96.082031 61.453125 94.125 63.0625 C 92.164062 64.671875 90.246094 66.324219 88.367188 68.027344 C 86.488281 69.730469 84.652344 71.476562 82.863281 73.269531 C 81.070312 75.0625 79.324219 76.894531 77.621094 78.773438 C 75.917969 80.652344 74.261719 82.570312 72.65625 84.53125 C 71.046875 86.488281 69.488281 88.488281 67.976562 90.523438 C 66.46875 92.558594 65.007812 94.628906 63.601562 96.738281 C 62.191406 98.84375 60.835938 100.984375 59.535156 103.160156 C 58.230469 105.335938 56.980469 107.539062 55.789062 109.773438 C 54.59375 112.007812 53.453125 114.273438 52.371094 116.5625 C 51.285156 118.855469 50.257812 121.171875 49.289062 123.515625 C 48.320312 125.855469 47.40625 128.21875 46.554688 130.605469 C 45.699219 132.992188 44.90625 135.398438 44.167969 137.824219 C 43.433594 140.25 42.757812 142.691406 42.140625 145.152344 C 41.527344 147.609375 40.96875 150.082031 40.476562 152.566406 C 39.980469 155.054688 39.546875 157.550781 39.175781 160.058594 C 38.804688 162.5625 38.496094 165.078125 38.246094 167.601562 C 37.996094 170.125 37.8125 172.652344 37.6875 175.183594 C 37.5625 177.714844 37.5 180.246094 37.5 182.78125 C 37.5 185.316406 37.5625 187.851562 37.6875 190.382812 C 37.8125 192.914062 37.996094 195.441406 38.246094 197.960938 C 38.496094 200.484375 38.804688 203 39.175781 205.507812 C 39.546875 208.015625 39.980469 210.511719 40.476562 212.996094 C 40.96875 215.484375 41.527344 217.953125 42.140625 220.414062 C 42.757812 222.871094 43.433594 225.3125 44.167969 227.738281 C 44.90625 230.164062 45.699219 232.570312 46.554688 234.957031 C 47.40625 237.34375 48.320312 239.707031 49.289062 242.050781 C 50.257812 244.390625 51.285156 246.707031 52.371094 249 C 53.453125 251.289062 54.59375 253.554688 55.789062 255.789062 C 56.980469 258.023438 58.230469 260.230469 59.535156 262.402344 C 60.835938 264.578125 62.191406 266.71875 63.601562 268.824219 C 65.007812 270.933594 66.46875 273.003906 67.976562 275.039062 C 69.488281 277.078125 71.046875 279.074219 72.65625 281.035156 C 74.261719 282.992188 75.917969 284.910156 77.621094 286.789062 C 79.324219 288.667969 81.070312 290.503906 82.863281 292.296875 C 84.652344 294.085938 86.488281 295.835938 88.367188 297.535156 C 90.246094 299.238281 92.164062 300.894531 94.125 302.5 C 96.082031 304.109375 98.082031 305.667969 100.117188 307.179688 C 102.152344 308.6875 104.222656 310.148438 106.332031 311.554688 C 108.4375 312.964844 110.578125 314.320312 112.753906 315.621094 C 114.925781 316.925781 117.132812 318.175781 119.367188 319.371094 C 121.601562 320.5625 123.867188 321.703125 126.15625 322.789062 C 128.449219 323.871094 130.765625 324.898438 133.105469 325.867188 C 135.449219 326.835938 137.8125 327.75 140.199219 328.605469 C 142.585938 329.457031 144.992188 330.253906 147.417969 330.988281 C 149.84375 331.722656 152.285156 332.398438 154.742188 333.015625 C 157.203125 333.632812 159.675781 334.1875 162.160156 334.679688 C 164.644531 335.175781 167.144531 335.609375 169.648438 335.980469 C 172.15625 336.351562 174.671875 336.664062 177.195312 336.910156 C 179.71875 337.160156 182.242188 337.347656 184.777344 337.46875 C 187.308594 337.59375 189.839844 337.65625 192.375 337.65625 C 194.910156 337.65625 197.441406 337.59375 199.972656 337.46875 C 202.507812 337.347656 205.03125 337.160156 207.554688 336.910156 C 210.078125 336.664062 212.59375 336.351562 215.101562 335.980469 C 217.605469 335.609375 220.105469 335.175781 222.589844 334.679688 C 225.074219 334.1875 227.546875 333.632812 230.007812 333.015625 C 232.464844 332.398438 234.90625 331.722656 237.332031 330.988281 C 239.757812 330.253906 242.164062 329.457031 244.550781 328.605469 C 246.9375 327.75 249.300781 326.835938 251.644531 325.867188 C 253.984375 324.898438 256.300781 323.871094 258.59375 322.789062 C 260.882812 321.703125 263.148438 320.5625 265.382812 319.371094 C 267.617188 318.175781 269.824219 316.925781 271.996094 315.621094 C 274.171875 314.320312 276.3125 312.964844 278.417969 311.554688 C 280.527344 310.148438 282.597656 308.6875 284.632812 307.179688 C 286.667969 305.667969 288.667969 304.109375 290.625 302.5 C 292.585938 300.894531 294.503906 299.238281 296.382812 297.535156 C 298.261719 295.835938 300.097656 294.085938 301.886719 292.296875 C 303.679688 290.503906 305.425781 288.667969 307.128906 286.789062 C 308.832031 284.910156 310.488281 282.992188 312.09375 281.035156 C 313.703125 279.074219 315.261719 277.078125 316.773438 275.039062 C 318.28125 273.003906 319.742188 270.933594 321.148438 268.824219 C 322.558594 266.71875 323.914062 264.578125 325.214844 262.402344 C 326.519531 260.230469 327.769531 258.023438 328.960938 255.789062 C 330.15625 253.554688 331.296875 251.289062 332.378906 249 C 333.464844 246.707031 334.492188 244.390625 335.460938 242.050781 C 336.429688 239.707031 337.34375 237.34375 338.195312 234.957031 C 339.050781 232.570312 339.84375 230.164062 340.582031 227.738281 C 341.316406 225.3125 341.992188 222.871094 342.609375 220.414062 C 343.222656 217.953125 343.78125 215.484375 344.273438 212.996094 C 344.769531 210.511719 345.203125 208.015625 345.574219 205.507812 C 345.945312 203 346.253906 200.484375 346.503906 197.960938 C 346.753906 195.441406 346.9375 192.914062 347.0625 190.382812 C 347.1875 187.851562 347.25 185.316406 347.25 182.78125 C 347.246094 180.25 347.183594 177.714844 347.054688 175.183594 C 346.929688 172.65625 346.738281 170.128906 346.488281 167.605469 C 346.238281 165.085938 345.925781 162.570312 345.550781 160.066406 C 345.175781 157.558594 344.742188 155.0625 344.246094 152.578125 C 343.75 150.09375 343.191406 147.625 342.574219 145.164062 C 341.957031 142.707031 341.28125 140.265625 340.542969 137.84375 C 339.804688 135.417969 339.007812 133.015625 338.152344 130.628906 C 337.300781 128.242188 336.386719 125.882812 335.414062 123.539062 C 334.445312 121.199219 333.417969 118.882812 332.332031 116.59375 C 331.246094 114.304688 330.109375 112.042969 328.914062 109.808594 C 327.714844 107.574219 326.46875 105.371094 325.164062 103.199219 C 323.859375 101.023438 322.503906 98.886719 321.097656 96.777344 C 319.6875 94.671875 318.230469 92.601562 316.71875 90.566406 C 315.210938 88.53125 313.648438 86.535156 312.042969 84.578125 C 310.433594 82.617188 308.78125 80.699219 307.078125 78.824219 C 305.375 76.945312 303.628906 75.109375 301.839844 73.320312 C 300.046875 71.527344 298.210938 69.78125 296.335938 68.078125 C 294.457031 66.375 292.539062 64.722656 290.582031 63.113281 C 288.621094 61.507812 286.625 59.949219 284.589844 58.4375 C 282.554688 56.929688 280.484375 55.46875 278.378906 54.0625 C 276.273438 52.652344 274.132812 51.296875 271.960938 49.992188 C 269.785156 48.691406 267.582031 47.441406 265.347656 46.246094 C 263.113281 45.050781 260.851562 43.910156 258.5625 42.824219 C 256.273438 41.742188 253.957031 40.710938 251.617188 39.742188 C 249.277344 38.769531 246.914062 37.859375 244.527344 37.003906 C 242.144531 36.148438 239.738281 35.351562 237.3125 34.613281 C 234.890625 33.878906 232.449219 33.199219 229.992188 32.582031 C 227.535156 31.964844 225.0625 31.40625 222.578125 30.910156 C 220.09375 30.414062 217.597656 29.980469 215.089844 29.605469 C 212.585938 29.230469 210.070312 28.917969 207.550781 28.667969 C 205.027344 28.417969 202.503906 28.230469 199.972656 28.101562 C 197.441406 27.976562 194.910156 27.910156 192.375 27.90625 Z M 192.375 321.355469 C 190.105469 321.355469 187.839844 321.296875 185.574219 321.1875 C 183.308594 321.074219 181.050781 320.910156 178.792969 320.6875 C 176.535156 320.464844 174.285156 320.1875 172.042969 319.855469 C 169.800781 319.523438 167.566406 319.132812 165.339844 318.691406 C 163.117188 318.25 160.90625 317.753906 158.703125 317.203125 C 156.503906 316.652344 154.320312 316.046875 152.148438 315.386719 C 149.980469 314.730469 147.828125 314.019531 145.691406 313.253906 C 143.554688 312.488281 141.441406 311.675781 139.34375 310.804688 C 137.25 309.9375 135.179688 309.019531 133.128906 308.050781 C 131.078125 307.082031 129.050781 306.0625 127.050781 304.992188 C 125.050781 303.921875 123.078125 302.804688 121.132812 301.640625 C 119.1875 300.472656 117.273438 299.261719 115.386719 298 C 113.503906 296.742188 111.648438 295.433594 109.828125 294.085938 C 108.007812 292.734375 106.21875 291.339844 104.464844 289.898438 C 102.710938 288.460938 100.996094 286.980469 99.316406 285.457031 C 97.636719 283.933594 95.992188 282.371094 94.390625 280.765625 C 92.785156 279.164062 91.222656 277.523438 89.699219 275.839844 C 88.175781 274.160156 86.695312 272.445312 85.257812 270.691406 C 83.820312 268.9375 82.421875 267.152344 81.074219 265.328125 C 79.722656 263.507812 78.417969 261.652344 77.15625 259.769531 C 75.894531 257.882812 74.683594 255.96875 73.515625 254.023438 C 72.351562 252.078125 71.234375 250.105469 70.164062 248.105469 C 69.097656 246.105469 68.078125 244.078125 67.105469 242.027344 C 66.136719 239.980469 65.21875 237.90625 64.351562 235.8125 C 63.484375 233.714844 62.667969 231.601562 61.902344 229.464844 C 61.140625 227.332031 60.429688 225.175781 59.769531 223.007812 C 59.109375 220.835938 58.507812 218.652344 57.957031 216.453125 C 57.40625 214.253906 56.90625 212.039062 56.464844 209.816406 C 56.023438 207.59375 55.636719 205.359375 55.300781 203.113281 C 54.96875 200.871094 54.691406 198.621094 54.46875 196.363281 C 54.246094 194.109375 54.082031 191.847656 53.96875 189.582031 C 53.859375 187.316406 53.800781 185.050781 53.800781 182.78125 C 53.800781 180.515625 53.859375 178.246094 53.96875 175.984375 C 54.082031 173.71875 54.246094 171.457031 54.46875 169.199219 C 54.691406 166.941406 54.96875 164.691406 55.300781 162.449219 C 55.636719 160.207031 56.023438 157.972656 56.464844 155.746094 C 56.90625 153.523438 57.40625 151.3125 57.957031 149.113281 C 58.507812 146.910156 59.109375 144.726562 59.769531 142.554688 C 60.429688 140.386719 61.140625 138.234375 61.902344 136.097656 C 62.667969 133.964844 63.484375 131.847656 64.351562 129.753906 C 65.21875 127.65625 66.136719 125.585938 67.105469 123.535156 C 68.078125 121.484375 69.097656 119.460938 70.164062 117.460938 C 71.234375 115.460938 72.351562 113.488281 73.515625 111.542969 C 74.683594 109.597656 75.894531 107.679688 77.15625 105.796875 C 78.417969 103.910156 79.722656 102.054688 81.074219 100.234375 C 82.421875 98.414062 83.820312 96.625 85.257812 94.871094 C 86.695312 93.121094 88.175781 91.402344 89.699219 89.722656 C 91.222656 88.042969 92.785156 86.398438 94.390625 84.796875 C 95.992188 83.191406 97.636719 81.628906 99.316406 80.105469 C 100.996094 78.582031 102.710938 77.101562 104.464844 75.664062 C 106.21875 74.226562 108.007812 72.832031 109.828125 71.480469 C 111.648438 70.128906 113.503906 68.824219 115.386719 67.5625 C 117.273438 66.304688 119.1875 65.089844 121.132812 63.925781 C 123.078125 62.757812 125.050781 61.640625 127.050781 60.570312 C 129.050781 59.503906 131.078125 58.484375 133.128906 57.515625 C 135.179688 56.542969 137.25 55.625 139.34375 54.757812 C 141.441406 53.890625 143.554688 53.074219 145.691406 52.308594 C 147.828125 51.546875 149.980469 50.835938 152.148438 50.175781 C 154.320312 49.519531 156.503906 48.914062 158.703125 48.363281 C 160.90625 47.8125 163.117188 47.316406 165.339844 46.871094 C 167.566406 46.429688 169.800781 46.042969 172.042969 45.710938 C 174.285156 45.375 176.535156 45.097656 178.792969 44.875 C 181.050781 44.65625 183.308594 44.488281 185.574219 44.375 C 187.839844 44.265625 190.105469 44.210938 192.375 44.210938 C 194.644531 44.210938 196.910156 44.265625 199.175781 44.375 C 201.441406 44.488281 203.699219 44.65625 205.957031 44.875 C 208.214844 45.097656 210.464844 45.375 212.707031 45.710938 C 214.949219 46.042969 217.183594 46.429688 219.410156 46.871094 C 221.632812 47.316406 223.84375 47.8125 226.046875 48.363281 C 228.246094 48.914062 230.429688 49.519531 232.601562 50.175781 C 234.769531 50.835938 236.921875 51.546875 239.058594 52.308594 C 241.195312 53.074219 243.308594 53.890625 245.40625 54.757812 C 247.5 55.625 249.570312 56.542969 251.621094 57.515625 C 253.671875 58.484375 255.699219 59.503906 257.699219 60.570312 C 259.699219 61.640625 261.671875 62.757812 263.617188 63.925781 C 265.5625 65.089844 267.476562 66.304688 269.363281 67.5625 C 271.246094 68.824219 273.101562 70.128906 274.921875 71.480469 C 276.742188 72.832031 278.53125 74.226562 280.285156 75.664062 C 282.039062 77.101562 283.753906 78.582031 285.433594 80.105469 C 287.113281 81.628906 288.757812 83.191406 290.359375 84.796875 C 291.964844 86.398438 293.527344 88.042969 295.050781 89.722656 C 296.574219 91.402344 298.054688 93.121094 299.492188 94.871094 C 300.929688 96.625 302.328125 98.414062 303.675781 100.234375 C 305.027344 102.054688 306.332031 103.910156 307.59375 105.796875 C 308.855469 107.679688 310.066406 109.597656 311.234375 111.542969 C 312.398438 113.488281 313.515625 115.460938 314.585938 117.460938 C 315.652344 119.460938 316.671875 121.484375 317.644531 123.535156 C 318.613281 125.585938 319.53125 127.65625 320.398438 129.753906 C 321.265625 131.847656 322.082031 133.964844 322.847656 136.097656 C 323.609375 138.234375 324.320312 140.386719 324.980469 142.554688 C 325.640625 144.726562 326.242188 146.910156 326.792969 149.113281 C 327.34375 151.3125 327.84375 153.523438 328.285156 155.746094 C 328.726562 157.972656 329.113281 160.207031 329.449219 162.449219 C 329.78125 164.691406 330.058594 166.941406 330.28125 169.199219 C 330.503906 171.457031 330.667969 173.71875 330.78125 175.984375 C 330.890625 178.246094 330.949219 180.515625 330.949219 182.78125 C 330.945312 185.050781 330.886719 187.316406 330.773438 189.578125 C 330.660156 191.84375 330.492188 194.105469 330.265625 196.359375 C 330.042969 198.617188 329.761719 200.863281 329.425781 203.105469 C 329.09375 205.347656 328.703125 207.582031 328.257812 209.804688 C 327.816406 212.027344 327.316406 214.238281 326.765625 216.4375 C 326.210938 218.636719 325.605469 220.820312 324.945312 222.988281 C 324.285156 225.160156 323.574219 227.3125 322.808594 229.445312 C 322.042969 231.578125 321.226562 233.691406 320.359375 235.789062 C 319.488281 237.882812 318.570312 239.953125 317.597656 242 C 316.628906 244.050781 315.609375 246.074219 314.539062 248.074219 C 313.46875 250.074219 312.351562 252.042969 311.1875 253.988281 C 310.019531 255.933594 308.804688 257.847656 307.546875 259.730469 C 306.285156 261.617188 304.980469 263.46875 303.628906 265.289062 C 302.277344 267.109375 300.882812 268.898438 299.445312 270.648438 C 298.007812 272.402344 296.527344 274.117188 295.003906 275.796875 C 293.480469 277.476562 291.917969 279.117188 290.316406 280.722656 C 288.710938 282.324219 287.070312 283.886719 285.390625 285.410156 C 283.710938 286.933594 281.996094 288.414062 280.242188 289.851562 C 278.492188 291.289062 276.703125 292.6875 274.882812 294.035156 C 273.0625 295.386719 271.210938 296.691406 269.324219 297.953125 C 267.441406 299.214844 265.527344 300.425781 263.582031 301.59375 C 261.636719 302.757812 259.664062 303.875 257.667969 304.945312 C 255.667969 306.015625 253.644531 307.035156 251.59375 308.007812 C 249.546875 308.976562 247.472656 309.894531 245.378906 310.765625 C 243.285156 311.632812 241.171875 312.449219 239.039062 313.214844 C 236.902344 313.980469 234.753906 314.691406 232.582031 315.351562 C 230.414062 316.011719 228.230469 316.617188 226.03125 317.171875 C 223.832031 317.722656 221.621094 318.222656 219.398438 318.667969 C 217.175781 319.109375 214.941406 319.5 212.699219 319.835938 C 210.457031 320.167969 208.207031 320.449219 205.953125 320.671875 C 203.695312 320.898438 201.4375 321.066406 199.171875 321.179688 C 196.90625 321.292969 194.640625 321.351562 192.375 321.355469 Z M 192.375 321.355469 " fill-opacity="1" fill-rule="nonzero"/></g></svg>