<svg xmlns="http://www.w3.org/2000/svg" xmlns:xlink="http://www.w3.org/1999/xlink" width="500" zoomAndPan="magnify" viewBox="0 0 375 374.999991" height="500" preserveAspectRatio="xMidYMid meet" version="1.0"><defs><clipPath id="84eb053a77"><path d="M 23.546875 23.984375 L 351.296875 23.984375 L 351.296875 351.734375 L 23.546875 351.734375 Z M 23.546875 23.984375 " clip-rule="nonzero"/></clipPath><clipPath id="3f48235405"><path d="M 316.871094 351.738281 L 57.972656 351.738281 C 38.960938 351.738281 23.546875 336.324219 23.546875 317.304688 L 23.546875 58.410156 C 23.546875 39.398438 38.960938 23.984375 57.972656 23.984375 L 316.871094 23.984375 C 335.886719 23.984375 351.296875 39.398438 351.296875 58.410156 L 351.296875 317.304688 C 351.304688 336.324219 335.886719 351.738281 316.871094 351.738281 Z M 316.871094 351.738281 " clip-rule="nonzero"/></clipPath><linearGradient x1="-0.000000198257" gradientTransform="matrix(0.711726, 0, 0, 0.711726, 23.546515, 23.982549)" y1="230.254" x2="460.49999" gradientUnits="userSpaceOnUse" y2="230.254" id="f6bbe63e40"><stop stop-opacity="1" stop-color="rgb(24.699402%, 74.899292%, 73.298645%)" offset="0"/><stop stop-opacity="1" stop-color="rgb(24.691772%, 74.996948%, 73.294067%)" offset="0.0078125"/><stop stop-opacity="1" stop-color="rgb(24.674988%, 75.192261%, 73.286438%)" offset="0.015625"/><stop stop-opacity="1" stop-color="rgb(24.659729%, 75.389099%, 73.277283%)" offset="0.0234375"/><stop stop-opacity="1" stop-color="rgb(24.64447%, 75.584412%, 73.268127%)" offset="0.03125"/><stop stop-opacity="1" stop-color="rgb(24.629211%, 75.78125%, 73.260498%)" offset="0.0390625"/><stop stop-opacity="1" stop-color="rgb(24.612427%, 75.978088%, 73.251343%)" offset="0.046875"/><stop stop-opacity="1" stop-color="rgb(24.597168%, 76.173401%, 73.243713%)" offset="0.0546875"/><stop stop-opacity="1" stop-color="rgb(24.581909%, 76.370239%, 73.234558%)" offset="0.0625"/><stop stop-opacity="1" stop-color="rgb(24.56665%, 76.565552%, 73.225403%)" offset="0.0703125"/><stop stop-opacity="1" stop-color="rgb(24.549866%, 76.76239%, 73.217773%)" offset="0.078125"/><stop stop-opacity="1" stop-color="rgb(24.534607%, 76.957703%, 73.208618%)" offset="0.0859375"/><stop stop-opacity="1" stop-color="rgb(24.519348%, 77.154541%, 73.199463%)" offset="0.09375"/><stop stop-opacity="1" stop-color="rgb(24.504089%, 77.349854%, 73.191833%)" offset="0.101563"/><stop stop-opacity="1" stop-color="rgb(24.488831%, 77.546692%, 73.182678%)" offset="0.109375"/><stop stop-opacity="1" stop-color="rgb(24.472046%, 77.742004%, 73.175049%)" offset="0.117188"/><stop stop-opacity="1" stop-color="rgb(24.456787%, 77.938843%, 73.165894%)" offset="0.125"/><stop stop-opacity="1" stop-color="rgb(24.441528%, 78.134155%, 73.156738%)" offset="0.132812"/><stop stop-opacity="1" stop-color="rgb(24.42627%, 78.330994%, 73.149109%)" offset="0.140625"/><stop stop-opacity="1" stop-color="rgb(24.409485%, 78.526306%, 73.139954%)" offset="0.148438"/><stop stop-opacity="1" stop-color="rgb(24.394226%, 78.723145%, 73.130798%)" offset="0.15625"/><stop stop-opacity="1" stop-color="rgb(24.378967%, 78.918457%, 73.123169%)" offset="0.164063"/><stop stop-opacity="1" stop-color="rgb(24.363708%, 79.115295%, 73.114014%)" offset="0.171875"/><stop stop-opacity="1" stop-color="rgb(24.346924%, 79.310608%, 73.104858%)" offset="0.179688"/><stop stop-opacity="1" stop-color="rgb(24.331665%, 79.507446%, 73.097229%)" offset="0.1875"/><stop stop-opacity="1" stop-color="rgb(24.316406%, 79.702759%, 73.088074%)" offset="0.195313"/><stop stop-opacity="1" stop-color="rgb(24.301147%, 79.899597%, 73.080444%)" offset="0.203125"/><stop stop-opacity="1" stop-color="rgb(24.284363%, 80.09491%, 73.071289%)" offset="0.210938"/><stop stop-opacity="1" stop-color="rgb(24.269104%, 80.291748%, 73.062134%)" offset="0.21875"/><stop stop-opacity="1" stop-color="rgb(24.253845%, 80.487061%, 73.054504%)" offset="0.226563"/><stop stop-opacity="1" stop-color="rgb(24.238586%, 80.683899%, 73.045349%)" offset="0.234375"/><stop stop-opacity="1" stop-color="rgb(24.221802%, 80.879211%, 73.036194%)" offset="0.242188"/><stop stop-opacity="1" stop-color="rgb(24.206543%, 81.07605%, 73.028564%)" offset="0.25"/><stop stop-opacity="1" stop-color="rgb(24.191284%, 81.271362%, 73.019409%)" offset="0.257813"/><stop stop-opacity="1" stop-color="rgb(24.176025%, 81.468201%, 73.01178%)" offset="0.265625"/><stop stop-opacity="1" stop-color="rgb(24.159241%, 81.663513%, 73.002625%)" offset="0.273438"/><stop stop-opacity="1" stop-color="rgb(24.143982%, 81.860352%, 72.993469%)" offset="0.28125"/><stop stop-opacity="1" stop-color="rgb(24.128723%, 82.055664%, 72.98584%)" offset="0.289063"/><stop stop-opacity="1" stop-color="rgb(24.113464%, 82.252502%, 72.976685%)" offset="0.296875"/><stop stop-opacity="1" stop-color="rgb(24.098206%, 82.447815%, 72.967529%)" offset="0.304688"/><stop stop-opacity="1" stop-color="rgb(24.081421%, 82.644653%, 72.9599%)" offset="0.3125"/><stop stop-opacity="1" stop-color="rgb(24.066162%, 82.839966%, 72.950745%)" offset="0.320313"/><stop stop-opacity="1" stop-color="rgb(24.050903%, 83.036804%, 72.941589%)" offset="0.328125"/><stop stop-opacity="1" stop-color="rgb(24.035645%, 83.232117%, 72.93396%)" offset="0.335938"/><stop stop-opacity="1" stop-color="rgb(24.01886%, 83.428955%, 72.924805%)" offset="0.34375"/><stop stop-opacity="1" stop-color="rgb(24.003601%, 83.624268%, 72.917175%)" offset="0.351563"/><stop stop-opacity="1" stop-color="rgb(23.988342%, 83.821106%, 72.90802%)" offset="0.359375"/><stop stop-opacity="1" stop-color="rgb(23.973083%, 84.016418%, 72.898865%)" offset="0.367188"/><stop stop-opacity="1" stop-color="rgb(23.956299%, 84.213257%, 72.891235%)" offset="0.375"/><stop stop-opacity="1" stop-color="rgb(23.94104%, 84.408569%, 72.88208%)" offset="0.382812"/><stop stop-opacity="1" stop-color="rgb(23.925781%, 84.605408%, 72.872925%)" offset="0.390625"/><stop stop-opacity="1" stop-color="rgb(23.910522%, 84.80072%, 72.865295%)" offset="0.398438"/><stop stop-opacity="1" stop-color="rgb(23.893738%, 84.997559%, 72.85614%)" offset="0.40625"/><stop stop-opacity="1" stop-color="rgb(23.878479%, 85.192871%, 72.848511%)" offset="0.414062"/><stop stop-opacity="1" stop-color="rgb(23.86322%, 85.389709%, 72.839355%)" offset="0.421875"/><stop stop-opacity="1" stop-color="rgb(23.847961%, 85.585022%, 72.8302%)" offset="0.429688"/><stop stop-opacity="1" stop-color="rgb(23.831177%, 85.78186%, 72.822571%)" offset="0.4375"/><stop stop-opacity="1" stop-color="rgb(23.815918%, 85.978699%, 72.813416%)" offset="0.445312"/><stop stop-opacity="1" stop-color="rgb(23.800659%, 86.174011%, 72.80426%)" offset="0.453125"/><stop stop-opacity="1" stop-color="rgb(23.7854%, 86.37085%, 72.796631%)" offset="0.460938"/><stop stop-opacity="1" stop-color="rgb(23.770142%, 86.566162%, 72.787476%)" offset="0.46875"/><stop stop-opacity="1" stop-color="rgb(23.753357%, 86.763%, 72.77832%)" offset="0.476563"/><stop stop-opacity="1" stop-color="rgb(23.738098%, 86.958313%, 72.770691%)" offset="0.484375"/><stop stop-opacity="1" stop-color="rgb(23.722839%, 87.155151%, 72.761536%)" offset="0.492188"/><stop stop-opacity="1" stop-color="rgb(23.707581%, 87.350464%, 72.753906%)" offset="0.5"/><stop stop-opacity="1" stop-color="rgb(23.690796%, 87.547302%, 72.744751%)" offset="0.507812"/><stop stop-opacity="1" stop-color="rgb(23.675537%, 87.742615%, 72.735596%)" offset="0.515625"/><stop stop-opacity="1" stop-color="rgb(23.660278%, 87.939453%, 72.727966%)" offset="0.523437"/><stop stop-opacity="1" stop-color="rgb(23.64502%, 88.134766%, 72.718811%)" offset="0.53125"/><stop stop-opacity="1" stop-color="rgb(23.628235%, 88.331604%, 72.709656%)" offset="0.539063"/><stop stop-opacity="1" stop-color="rgb(23.612976%, 88.526917%, 72.702026%)" offset="0.546875"/><stop stop-opacity="1" stop-color="rgb(23.597717%, 88.723755%, 72.692871%)" offset="0.554688"/><stop stop-opacity="1" stop-color="rgb(23.582458%, 88.919067%, 72.685242%)" offset="0.5625"/><stop stop-opacity="1" stop-color="rgb(23.565674%, 89.115906%, 72.676086%)" offset="0.570313"/><stop stop-opacity="1" stop-color="rgb(23.550415%, 89.311218%, 72.666931%)" offset="0.578125"/><stop stop-opacity="1" stop-color="rgb(23.535156%, 89.508057%, 72.659302%)" offset="0.585938"/><stop stop-opacity="1" stop-color="rgb(23.519897%, 89.703369%, 72.650146%)" offset="0.59375"/><stop stop-opacity="1" stop-color="rgb(23.503113%, 89.900208%, 72.640991%)" offset="0.601562"/><stop stop-opacity="1" stop-color="rgb(23.487854%, 90.09552%, 72.633362%)" offset="0.609375"/><stop stop-opacity="1" stop-color="rgb(23.472595%, 90.292358%, 72.624207%)" offset="0.617188"/><stop stop-opacity="1" stop-color="rgb(23.457336%, 90.487671%, 72.615051%)" offset="0.625"/><stop stop-opacity="1" stop-color="rgb(23.440552%, 90.684509%, 72.607422%)" offset="0.632812"/><stop stop-opacity="1" stop-color="rgb(23.425293%, 90.879822%, 72.598267%)" offset="0.640625"/><stop stop-opacity="1" stop-color="rgb(23.410034%, 91.07666%, 72.590637%)" offset="0.648438"/><stop stop-opacity="1" stop-color="rgb(23.394775%, 91.271973%, 72.581482%)" offset="0.65625"/><stop stop-opacity="1" stop-color="rgb(23.379517%, 91.468811%, 72.572327%)" offset="0.664062"/><stop stop-opacity="1" stop-color="rgb(23.362732%, 91.664124%, 72.564697%)" offset="0.671875"/><stop stop-opacity="1" stop-color="rgb(23.347473%, 91.860962%, 72.555542%)" offset="0.679688"/><stop stop-opacity="1" stop-color="rgb(23.332214%, 92.056274%, 72.546387%)" offset="0.6875"/><stop stop-opacity="1" stop-color="rgb(23.316956%, 92.253113%, 72.538757%)" offset="0.695313"/><stop stop-opacity="1" stop-color="rgb(23.300171%, 92.448425%, 72.529602%)" offset="0.703125"/><stop stop-opacity="1" stop-color="rgb(23.284912%, 92.645264%, 72.521973%)" offset="0.710938"/><stop stop-opacity="1" stop-color="rgb(23.269653%, 92.840576%, 72.512817%)" offset="0.71875"/><stop stop-opacity="1" stop-color="rgb(23.254395%, 93.037415%, 72.503662%)" offset="0.726562"/><stop stop-opacity="1" stop-color="rgb(23.23761%, 93.232727%, 72.496033%)" offset="0.734375"/><stop stop-opacity="1" stop-color="rgb(23.222351%, 93.429565%, 72.486877%)" offset="0.742188"/><stop stop-opacity="1" stop-color="rgb(23.207092%, 93.624878%, 72.477722%)" offset="0.75"/><stop stop-opacity="1" stop-color="rgb(23.191833%, 93.821716%, 72.470093%)" offset="0.757812"/><stop stop-opacity="1" stop-color="rgb(23.175049%, 94.017029%, 72.460938%)" offset="0.765625"/><stop stop-opacity="1" stop-color="rgb(23.15979%, 94.213867%, 72.451782%)" offset="0.773438"/><stop stop-opacity="1" stop-color="rgb(23.144531%, 94.40918%, 72.444153%)" offset="0.78125"/><stop stop-opacity="1" stop-color="rgb(23.129272%, 94.606018%, 72.434998%)" offset="0.789062"/><stop stop-opacity="1" stop-color="rgb(23.112488%, 94.801331%, 72.427368%)" offset="0.796875"/><stop stop-opacity="1" stop-color="rgb(23.097229%, 94.998169%, 72.418213%)" offset="0.804688"/><stop stop-opacity="1" stop-color="rgb(23.08197%, 95.193481%, 72.409058%)" offset="0.8125"/><stop stop-opacity="1" stop-color="rgb(23.066711%, 95.39032%, 72.401428%)" offset="0.820313"/><stop stop-opacity="1" stop-color="rgb(23.049927%, 95.585632%, 72.392273%)" offset="0.828125"/><stop stop-opacity="1" stop-color="rgb(23.034668%, 95.782471%, 72.383118%)" offset="0.835938"/><stop stop-opacity="1" stop-color="rgb(23.019409%, 95.979309%, 72.375488%)" offset="0.84375"/><stop stop-opacity="1" stop-color="rgb(23.00415%, 96.174622%, 72.366333%)" offset="0.851562"/><stop stop-opacity="1" stop-color="rgb(22.988892%, 96.37146%, 72.358704%)" offset="0.859375"/><stop stop-opacity="1" stop-color="rgb(22.972107%, 96.566772%, 72.349548%)" offset="0.867188"/><stop stop-opacity="1" stop-color="rgb(22.956848%, 96.763611%, 72.340393%)" offset="0.875"/><stop stop-opacity="1" stop-color="rgb(22.941589%, 96.958923%, 72.332764%)" offset="0.882812"/><stop stop-opacity="1" stop-color="rgb(22.926331%, 97.155762%, 72.323608%)" offset="0.890625"/><stop stop-opacity="1" stop-color="rgb(22.909546%, 97.351074%, 72.314453%)" offset="0.898438"/><stop stop-opacity="1" stop-color="rgb(22.894287%, 97.547913%, 72.306824%)" offset="0.90625"/><stop stop-opacity="1" stop-color="rgb(22.879028%, 97.743225%, 72.297668%)" offset="0.914062"/><stop stop-opacity="1" stop-color="rgb(22.86377%, 97.940063%, 72.288513%)" offset="0.921875"/><stop stop-opacity="1" stop-color="rgb(22.846985%, 98.135376%, 72.280884%)" offset="0.929687"/><stop stop-opacity="1" stop-color="rgb(22.831726%, 98.332214%, 72.271729%)" offset="0.9375"/><stop stop-opacity="1" stop-color="rgb(22.816467%, 98.527527%, 72.264099%)" offset="0.945313"/><stop stop-opacity="1" stop-color="rgb(22.801208%, 98.724365%, 72.254944%)" offset="0.953125"/><stop stop-opacity="1" stop-color="rgb(22.784424%, 98.919678%, 72.245789%)" offset="0.960938"/><stop stop-opacity="1" stop-color="rgb(22.769165%, 99.116516%, 72.238159%)" offset="0.96875"/><stop stop-opacity="1" stop-color="rgb(22.753906%, 99.311829%, 72.229004%)" offset="0.976562"/><stop stop-opacity="1" stop-color="rgb(22.738647%, 99.508667%, 72.219849%)" offset="0.984375"/><stop stop-opacity="1" stop-color="rgb(22.721863%, 99.703979%, 72.212219%)" offset="0.992188"/><stop stop-opacity="1" stop-color="rgb(22.706604%, 99.900818%, 72.203064%)" offset="1"/></linearGradient><clipPath id="ab549375f3"><path d="M 127 75 L 337.789062 75 L 337.789062 242 L 127 242 Z M 127 75 " clip-rule="nonzero"/></clipPath><clipPath id="a436825bf5"><path d="M 114 61.375 L 283 61.375 L 283 113 L 114 113 Z M 114 61.375 " clip-rule="nonzero"/></clipPath><clipPath id="cfd244124e"><path d="M 52.039062 102 L 319 102 L 319 327.625 L 52.039062 327.625 Z M 52.039062 102 " clip-rule="nonzero"/></clipPath><clipPath id="067c802ff0"><path d="M 45.195312 44.46875 L 194.445312 44.46875 L 194.445312 194.46875 L 45.195312 194.46875 Z M 45.195312 44.46875 " clip-rule="nonzero"/></clipPath></defs><g clip-path="url(#84eb053a77)"><g clip-path="url(#3f48235405)"><path fill="url(#f6bbe63e40)" d="M 23.546875 23.984375 L 23.546875 351.734375 L 351.296875 351.734375 L 351.296875 23.984375 Z M 23.546875 23.984375 " fill-rule="nonzero"/></g></g><g clip-path="url(#ab549375f3)"><path fill="#004aad" d="M 142.386719 166.984375 L 127.019531 182.335938 L 186.472656 241.742188 L 337.789062 90.550781 L 322.421875 75.207031 L 186.472656 211.035156 Z M 142.386719 166.984375 " fill-opacity="1" fill-rule="nonzero"/></g><path fill="#004aad" d="M 94.03125 217.699219 C 95.890625 225.027344 98.65625 232.128906 102.226562 238.800781 L 113.714844 232.652344 C 110.640625 226.902344 108.265625 220.796875 106.660156 214.484375 C 105.007812 207.988281 104.171875 201.257812 104.171875 194.484375 C 104.171875 183.554688 106.3125 172.949219 110.535156 162.964844 C 114.621094 153.324219 120.460938 144.660156 127.90625 137.226562 C 135.355469 129.792969 144.019531 123.949219 153.667969 119.867188 C 163.652344 115.648438 174.265625 113.511719 185.214844 113.511719 C 196.15625 113.511719 206.765625 115.648438 216.761719 119.867188 C 226.40625 123.949219 235.082031 129.785156 242.519531 137.226562 C 243.441406 138.144531 244.347656 139.09375 245.214844 140.046875 L 254.4375 130.835938 C 253.550781 129.878906 252.652344 128.933594 251.734375 128.019531 C 247.472656 123.765625 242.789062 119.910156 237.808594 116.550781 C 232.777344 113.15625 227.398438 110.238281 221.828125 107.882812 C 210.226562 102.976562 197.902344 100.492188 185.207031 100.492188 C 172.507812 100.492188 160.183594 102.976562 148.582031 107.882812 C 143.003906 110.238281 137.632812 113.15625 132.601562 116.550781 C 127.621094 119.910156 122.9375 123.773438 118.679688 128.019531 C 114.421875 132.277344 110.5625 136.957031 107.199219 141.933594 C 103.800781 146.960938 100.878906 152.335938 98.523438 157.902344 C 93.613281 169.496094 91.128906 181.808594 91.128906 194.496094 C 91.144531 202.34375 92.121094 210.152344 94.03125 217.699219 Z M 94.03125 217.699219 " fill-opacity="1" fill-rule="nonzero"/><path fill="#004aad" d="M 119.800781 256.992188 L 132.671875 290.136719 L 140.867188 277.40625 C 154.449219 284.683594 169.613281 288.488281 185.214844 288.488281 C 197.910156 288.488281 210.234375 286.003906 221.835938 281.097656 C 227.417969 278.742188 232.789062 275.824219 237.820312 272.429688 C 242.800781 269.070312 247.484375 265.207031 251.742188 260.960938 C 256 256.714844 259.859375 252.023438 263.222656 247.046875 C 266.621094 242.019531 269.539062 236.644531 271.894531 231.078125 C 276.804688 219.484375 279.292969 207.171875 279.292969 194.484375 C 279.292969 184.621094 277.789062 174.992188 274.816406 165.742188 L 264.222656 176.328125 C 265.578125 182.242188 266.265625 188.3125 266.265625 194.484375 C 266.265625 205.417969 264.125 216.023438 259.902344 226.007812 C 255.816406 235.648438 249.976562 244.3125 242.53125 251.746094 C 235.082031 259.179688 226.417969 265.023438 216.769531 269.105469 C 206.785156 273.324219 196.171875 275.460938 185.222656 275.460938 C 172.136719 275.460938 159.410156 272.351562 147.949219 266.414062 L 155.328125 254.949219 Z M 119.800781 256.992188 " fill-opacity="1" fill-rule="nonzero"/><g clip-path="url(#a436825bf5)"><path fill="#004aad" d="M 151.484375 79.234375 C 162.390625 76.058594 173.742188 74.441406 185.222656 74.441406 C 201.449219 74.441406 217.179688 77.613281 231.988281 83.875 C 239.105469 86.878906 245.972656 90.601562 252.394531 94.945312 C 258.753906 99.242188 264.742188 104.175781 270.183594 109.613281 C 271.105469 110.53125 272.007812 111.46875 272.894531 112.417969 L 282.117188 103.203125 C 281.21875 102.257812 280.316406 101.320312 279.394531 100.398438 C 273.371094 94.378906 266.742188 88.910156 259.683594 84.152344 C 252.566406 79.339844 244.953125 75.214844 237.0625 71.882812 C 229.023438 68.484375 220.613281 65.871094 212.050781 64.125 C 203.273438 62.328125 194.253906 61.425781 185.214844 61.425781 C 172.5 61.425781 159.925781 63.214844 147.828125 66.738281 C 136.113281 70.160156 124.910156 75.1875 114.542969 81.683594 L 121.46875 92.722656 C 130.828125 86.851562 140.925781 82.320312 151.484375 79.234375 Z M 151.484375 79.234375 " fill-opacity="1" fill-rule="nonzero"/></g><g clip-path="url(#cfd244124e)"><path fill="#004aad" d="M 307.9375 142.6875 C 306.953125 140.371094 305.902344 138.066406 304.78125 135.800781 L 294.976562 145.597656 C 295.300781 146.316406 295.613281 147.039062 295.925781 147.769531 C 302.191406 162.566406 305.363281 178.28125 305.363281 194.496094 C 305.363281 210.707031 302.191406 226.425781 295.925781 241.222656 C 292.917969 248.332031 289.191406 255.195312 284.84375 261.609375 C 280.542969 267.96875 275.605469 273.949219 270.164062 279.386719 C 264.726562 284.824219 258.746094 289.753906 252.375 294.054688 C 245.953125 298.386719 239.089844 302.113281 231.96875 305.125 C 217.160156 311.386719 201.429688 314.554688 185.207031 314.554688 C 168.980469 314.554688 153.25 311.386719 138.441406 305.125 C 131.324219 302.121094 124.457031 298.394531 118.035156 294.054688 C 111.671875 289.753906 105.6875 284.824219 100.246094 279.386719 C 94.804688 273.949219 89.867188 267.976562 85.566406 261.609375 C 81.230469 255.195312 77.5 248.332031 74.484375 241.222656 C 68.21875 226.425781 65.046875 210.707031 65.046875 194.496094 C 65.046875 181.121094 67.230469 168 71.53125 155.480469 C 74.53125 146.742188 78.527344 138.414062 83.445312 130.617188 L 93.746094 138.425781 L 94.464844 102.871094 L 60.398438 113.128906 L 73.050781 122.714844 C 67.316406 131.640625 62.683594 141.203125 59.234375 151.25 C 54.460938 165.136719 52.039062 179.6875 52.039062 194.496094 C 52.039062 203.515625 52.949219 212.539062 54.742188 221.308594 C 56.488281 229.855469 59.105469 238.261719 62.5 246.300781 C 65.839844 254.1875 69.976562 261.792969 74.78125 268.90625 C 79.542969 275.949219 85.019531 282.574219 91.042969 288.601562 C 97.066406 294.617188 103.695312 300.089844 110.753906 304.847656 C 117.871094 309.65625 125.484375 313.78125 133.375 317.117188 C 141.414062 320.511719 149.824219 323.125 158.386719 324.871094 C 167.164062 326.667969 176.183594 327.574219 185.222656 327.574219 C 194.261719 327.574219 203.28125 326.660156 212.058594 324.871094 C 220.613281 323.125 229.023438 320.511719 237.070312 317.117188 C 244.960938 313.78125 252.574219 309.648438 259.695312 304.847656 C 266.742188 300.089844 273.371094 294.617188 279.402344 288.601562 C 285.425781 282.582031 290.902344 275.957031 295.664062 268.90625 C 300.480469 261.792969 304.605469 254.1875 307.945312 246.300781 C 311.34375 238.269531 313.957031 229.863281 315.707031 221.308594 C 317.503906 212.539062 318.40625 203.527344 318.40625 194.496094 C 318.40625 185.464844 317.496094 176.449219 315.707031 167.679688 C 313.949219 159.132812 311.34375 150.730469 307.9375 142.6875 Z M 307.9375 142.6875 " fill-opacity="1" fill-rule="nonzero"/></g><g clip-path="url(#067c802ff0)"><path fill="#ffffff" d="M 194.445312 119.472656 C 194.445312 160.808594 161.050781 194.257812 119.820312 194.257812 C 78.597656 194.253906 45.195312 160.808594 45.195312 119.472656 C 45.195312 78.164062 78.597656 44.683594 119.816406 44.683594 C 161.046875 44.683594 194.445312 78.164062 194.445312 119.472656 Z M 194.445312 119.472656 " fill-opacity="1" fill-rule="nonzero"/></g><path fill="#3fbfbb" d="M 81.304688 110.601562 L 160.464844 110.601562 L 160.464844 129.285156 L 81.304688 129.285156 Z M 81.304688 110.601562 " fill-opacity="1" fill-rule="nonzero"/><path fill="#3fbfbb" d="M 111.5625 80.28125 L 130.222656 80.28125 L 130.222656 159.601562 L 111.5625 159.601562 Z M 111.5625 80.28125 " fill-opacity="1" fill-rule="nonzero"/></svg>